<svg xmlns="http://www.w3.org/2000/svg" viewBox="0 0 20 20"><title>status_alert_exclamation</title><path d="M14.49,2.21A9,9,0,0,0,10,1h0A9,9,0,0,0,1.31,12.33,9,9,0,0,0,10,19,9,9,0,0,0,18.69,7.67,8.91,8.91,0,0,0,14.49,2.21Z" style="fill:#ff8900"/><path d="M19.65,7.42A10,10,0,0,0,10,0h0A10,10,0,0,0,1.34,5,10,10,0,0,0,5,18.66,10,10,0,0,0,10,20h0a10,10,0,0,0,8.66-5A9.9,9.9,0,0,0,19.65,7.42ZM5.51,17.79A9,9,0,0,1,2.21,5.5,9,9,0,0,1,10,1h0A9,9,0,1,1,5.51,17.79Z" style="fill:#ff6800"/><path d="M11.32,14.35A1.26,1.26,0,0,1,10,15.61a1.26,1.26,0,0,1-1.32-1.26,1.32,1.32,0,0,1,2.64,0Zm-.1-9.45-.09,7H8.89l-.09-7V4.39h2.42Z" style="fill:#fff"/></svg>